<?xml version="1.0" encoding="utf-8"?>
<svg id="master-artboard" viewBox="0 0 2340 1560" version="1.1" xmlns="http://www.w3.org/2000/svg" x="0px" y="0px" width="2340px" height="1560px" enable-background="new 0 0 2340 1560">
<metadata><!--?xpacket begin="﻿" id="W5M0MpCehiHzreSzNTczkc9d"?-->

                                                                                                    
                                                                                                    
                                                                                                    
                                                                                                    
                                                                                                    
                                                                                                    
                                                                                                    
                                                                                                    
                                                                                                    
                                                                                                    
                                                                                                    
                                                                                                    
                                                                                                    
                                                                                                    
                                                                                                    
                                                                                                    
                                                                                                    
                                                                                                    
                                                                                                    
                                                                                                    
                           
<!--?xpacket end="w"?-->
	</metadata>
<path fill="#87287F" d="M905.352,885.129c-7.536,0-11.898,4.23-11.898,13.22v35.034c0,8.989,4.363,13.22,11.766,13.22&#10;&#9;&#9;s11.898-4.23,11.898-13.22v-4.495h-7.8c-3.966,0-6.213-3.834-6.213-7.933c0-3.833,2.248-7.932,6.213-7.932h22.21&#10;&#9;&#9;c3.966,0,6.214,3.041,6.214,6.478v13.882c0,22.738-14.278,31.199-32.522,31.199c-18.244,0-32.389-8.461-32.389-31.199v-35.034&#10;&#9;&#9;c0-22.738,14.41-31.199,31.729-31.199c18.905,0,33.183,9.519,33.183,26.308c0,7.933-3.305,9.783-10.312,9.783&#10;&#9;&#9;c-5.552,0-10.179-1.454-10.312-6.213C916.985,892.268,916.589,885.129,905.352,885.129z" transform="matrix(1, 0, 0, 1, 0, 0)"/><path fill="#87287F" d="M943.025,955.328c0-0.396,0.132-0.926,0.264-1.454l24.59-80.644c1.454-4.627,7.403-6.874,13.484-6.874&#10;&#9;&#9;c6.082,0,12.031,2.247,13.485,6.874l24.722,80.644c0.132,0.528,0.265,1.058,0.265,1.454c0,4.892-7.536,8.461-13.22,8.461&#10;&#9;&#9;c-3.305,0-5.949-1.058-6.742-3.834l-4.495-16.525h-27.895l-4.495,16.525c-0.793,2.776-3.437,3.834-6.742,3.834&#10;&#9;&#9;C950.561,963.789,943.025,960.22,943.025,955.328z M991.014,927.565l-9.651-35.43l-9.65,35.43H991.014z" transform="matrix(1, 0, 0, 1, 0, 0)"/><path fill="#87287F" d="M1074.032,929.549c-1.719,2.908-4.363,3.834-6.875,3.834c-2.379,0-4.891-0.793-6.478-3.834l-12.56-23.003&#10;&#9;&#9;v50.897c0,4.23-5.156,6.346-10.312,6.346s-10.312-2.115-10.312-6.346v-79.982c0-7.535,5.156-10.312,10.312-10.312&#10;&#9;&#9;c7.403,0,10.576,0.793,15.997,10.312l13.617,23.797l13.617-23.797c5.42-9.519,8.593-10.312,15.997-10.312&#10;&#9;&#9;c5.288,0,10.312,2.776,10.312,10.312v79.982c0,4.23-5.156,6.346-10.312,6.346s-10.312-2.115-10.312-6.346v-49.576L1074.032,929.549&#10;&#9;&#9;z" transform="matrix(1, 0, 0, 1, 0, 0)"/><path fill="#87287F" d="M1142.242,907.471h19.83c3.966,0,6.213,3.834,6.213,8.064c0,3.569-1.851,7.8-6.213,7.8h-19.83v22.475h35.43&#10;&#9;&#9;c3.967,0,6.214,4.23,6.214,9.122c0,4.23-1.851,8.857-6.214,8.857h-47.063c-4.495,0-8.99-2.115-8.99-6.346v-83.948&#10;&#9;&#9;c0-4.23,4.495-6.346,8.99-6.346h47.063c4.363,0,6.214,4.627,6.214,8.857c0,4.892-2.247,9.122-6.214,9.122h-35.43V907.471z" transform="matrix(1, 0, 0, 1, 0, 0)"/><path fill="#87287F" d="M1192.869,873.363c0-3.306,3.041-6.214,7.668-6.214h27.366c17.45,0,31.199,8.196,31.199,30.406v0.661&#10;&#9;&#9;c0,22.21-14.277,30.671-32.521,30.671h-13.088v28.556c0,4.23-5.156,6.346-10.312,6.346c-5.156,0-10.313-2.115-10.313-6.346V873.363&#10;&#9;&#9;z M1213.493,885.129v27.895h13.088c7.403,0,11.898-4.23,11.898-13.221v-1.454c0-8.989-4.495-13.22-11.898-13.22H1213.493z" transform="matrix(1, 0, 0, 1, 0, 0)"/><path fill="#87287F" d="M1277.076,963.789c-4.495,0-8.99-2.115-8.99-6.346v-84.08c0-4.363,5.156-6.214,10.313-6.214&#10;&#9;&#9;c5.155,0,10.312,1.851,10.312,6.214v72.446h30.142c3.967,0,5.949,4.495,5.949,8.989c0,4.495-1.982,8.99-5.949,8.99H1277.076z" transform="matrix(1, 0, 0, 1, 0, 0)"/><path fill="#87287F" d="M1326.516,955.328c0-0.396,0.132-0.926,0.264-1.454l24.59-80.644c1.454-4.627,7.403-6.874,13.484-6.874&#10;&#9;&#9;c6.082,0,12.03,2.247,13.484,6.874l24.723,80.644c0.132,0.528,0.264,1.058,0.264,1.454c0,4.892-7.535,8.461-13.22,8.461&#10;&#9;&#9;c-3.306,0-5.949-1.058-6.742-3.834l-4.495-16.525h-27.895l-4.495,16.525c-0.793,2.776-3.438,3.834-6.742,3.834&#10;&#9;&#9;C1334.051,963.789,1326.516,960.22,1326.516,955.328z M1374.505,927.565l-9.651-35.43l-9.65,35.43H1374.505z" transform="matrix(1, 0, 0, 1, 0, 0)"/><path fill="#87287F" d="M1423.944,924.261c0-0.793-0.264-1.454-0.528-1.851l-27.366-45.346c-0.265-0.529-0.265-1.058-0.265-1.454&#10;&#9;&#9;c0-4.892,8.329-8.461,14.014-8.461c3.306,0,4.495,1.322,5.949,3.834l18.509,33.976l18.376-33.976&#10;&#9;&#9;c1.322-2.512,2.644-3.834,5.949-3.834c5.685,0,14.013,3.569,14.013,8.461c0,0.396,0,0.925-0.264,1.454l-27.234,45.346&#10;&#9;&#9;c-0.264,0.396-0.528,1.058-0.528,1.851v33.183c0,4.23-5.156,6.346-10.312,6.346c-5.156,0-10.313-2.115-10.313-6.346V924.261z" transform="matrix(1, 0, 0, 1, 0, 0)"/>

<linearGradient id="SVGID_1_" gradientUnits="userSpaceOnUse" x1="1014.4956" y1="648.1743" x2="1388.6473" y2="897.6101">
		<stop offset="0" style="stop-color:#E72A79"/>
		<stop offset="1" style="stop-color:#642880"/>
	</linearGradient><path d="M 994.527993 629.473999 A 8.085 8.085 0 0 1 986.442993 637.558999 A 8.085 8.085 0 0 1 978.357993 629.473999 A 8.085 8.085 0 0 1 986.442993 621.388999 A 8.085 8.085 0 0 1 994.527993 629.473999 Z" fill="url(#SVGID_1_)" transform="matrix(1, 0, 0, 1, 0, 0)"/><linearGradient id="SVGID_2_" gradientUnits="userSpaceOnUse" x1="1032.9038" y1="620.5625" x2="1407.0457" y2="869.9916">
		<stop offset="0" style="stop-color:#E72A79"/>
		<stop offset="1" style="stop-color:#642880"/>
	</linearGradient><path fill="url(#SVGID_2_)" d="M1022.744,604.705c0-7.528-6.103-13.632-13.63-13.632s-13.628,6.104-13.628,13.632&#10;&#9;&#9;c0,7.525,6.101,13.627,13.628,13.627S1022.744,612.23,1022.744,604.705z" transform="matrix(1, 0, 0, 1, 0, 0)"/><linearGradient id="SVGID_3_" gradientUnits="userSpaceOnUse" x1="1037.1597" y1="614.1768" x2="1411.3015" y2="863.6059">
		<stop offset="0" style="stop-color:#E72A79"/>
		<stop offset="1" style="stop-color:#642880"/>
	</linearGradient><path fill="url(#SVGID_3_)" d="M995.07,577.032c0-7.528-6.103-13.632-13.629-13.632c-7.527,0-13.628,6.104-13.628,13.632&#10;&#9;&#9;c0,7.525,6.102,13.626,13.628,13.626C988.967,590.659,995.07,584.557,995.07,577.032z" transform="matrix(1, 0, 0, 1, 0, 0)"/><linearGradient id="SVGID_4_" gradientUnits="userSpaceOnUse" x1="1058.4961" y1="582.1724" x2="1432.6331" y2="831.5983">
		<stop offset="0" style="stop-color:#E72A79"/>
		<stop offset="1" style="stop-color:#642880"/>
	</linearGradient><path fill="url(#SVGID_4_)" d="M1053.704,565.236c0-11.388-9.23-20.621-20.616-20.621c-11.386,0-20.617,9.233-20.617,20.621&#10;&#9;&#9;c0,11.383,9.23,20.613,20.617,20.613C1044.473,585.849,1053.704,576.62,1053.704,565.236z" transform="matrix(1, 0, 0, 1, 0, 0)"/><linearGradient id="SVGID_5_" gradientUnits="userSpaceOnUse" x1="983.3472" y1="694.9004" x2="1357.5028" y2="944.3387">
		<stop offset="0" style="stop-color:#E72A79"/>
		<stop offset="1" style="stop-color:#642880"/>
	</linearGradient><path d="M 953.293983 666.36499 A 12.749 12.749 0 0 1 940.544983 679.11399 A 12.749 12.749 0 0 1 927.795983 666.36499 A 12.749 12.749 0 0 1 940.544983 653.615991 A 12.749 12.749 0 0 1 953.293983 666.36499 Z" fill="url(#SVGID_5_)" transform="matrix(1, 0, 0, 1, 0, 0)"/><linearGradient id="SVGID_6_" gradientUnits="userSpaceOnUse" x1="999.0513" y1="671.3369" x2="1373.1868" y2="920.7618">
		<stop offset="0" style="stop-color:#E72A79"/>
		<stop offset="1" style="stop-color:#642880"/>
	</linearGradient><path d="M 949.949983 632.333008 A 9.405 9.405 0 0 1 940.544983 641.738008 A 9.405 9.405 0 0 1 931.139983 632.333008 A 9.405 9.405 0 0 1 940.544983 622.928008 A 9.405 9.405 0 0 1 949.949983 632.333008 Z" fill="url(#SVGID_6_)" transform="matrix(1, 0, 0, 1, 0, 0)"/><linearGradient id="SVGID_7_" gradientUnits="userSpaceOnUse" x1="1000.9619" y1="668.457" x2="1375.0703" y2="917.8639">
		<stop offset="0" style="stop-color:#E72A79"/>
		<stop offset="1" style="stop-color:#642880"/>
	</linearGradient><path d="M 926.098992 614.177979 A 6.557 6.557 0 0 1 919.541992 620.734979 A 6.557 6.557 0 0 1 912.984992 614.177979 A 6.557 6.557 0 0 1 919.541992 607.620978 A 6.557 6.557 0 0 1 926.098992 614.177979 Z" fill="url(#SVGID_7_)" transform="matrix(1, 0, 0, 1, 0, 0)"/><linearGradient id="SVGID_8_" gradientUnits="userSpaceOnUse" x1="971.832" y1="712.1694" x2="1345.9683" y2="961.5948">
		<stop offset="0" style="stop-color:#E72A79"/>
		<stop offset="1" style="stop-color:#642880"/>
	</linearGradient><path d="M 1006.117023 719.189026 A 23.756001 23.756001 0 0 1 982.361023 742.945026 A 23.756001 23.756001 0 0 1 958.605022 719.189026 A 23.756001 23.756001 0 0 1 982.361023 695.433025 A 23.756001 23.756001 0 0 1 1006.117023 719.189026 Z" fill="url(#SVGID_8_)" transform="matrix(1, 0, 0, 1, 0, 0)"/><linearGradient id="SVGID_9_" gradientUnits="userSpaceOnUse" x1="966.5508" y1="720.0898" x2="1340.694" y2="969.5199">
		<stop offset="0" style="stop-color:#E72A79"/>
		<stop offset="1" style="stop-color:#642880"/>
	</linearGradient><path d="M 1029.676997 753.513 A 12.992 12.992 0 0 1 1016.684998 766.505 A 12.992 12.992 0 0 1 1003.692998 753.513 A 12.992 12.992 0 0 1 1016.684998 740.521001 A 12.992 12.992 0 0 1 1029.676997 753.513 Z" fill="url(#SVGID_9_)" transform="matrix(1, 0, 0, 1, 0, 0)"/><linearGradient id="SVGID_10_" gradientUnits="userSpaceOnUse" x1="996.2134" y1="675.5991" x2="1370.3754" y2="925.0417">
		<stop offset="0" style="stop-color:#E72A79"/>
		<stop offset="1" style="stop-color:#642880"/>
	</linearGradient><path d="M 999.552 666.36499 A 17.190001 17.190001 0 0 1 982.362 683.554991 A 17.190001 17.190001 0 0 1 965.171999 666.36499 A 17.190001 17.190001 0 0 1 982.362 649.17499 A 17.190001 17.190001 0 0 1 999.552 666.36499 Z" fill="url(#SVGID_10_)" transform="matrix(1, 0, 0, 1, 0, 0)"/><linearGradient id="SVGID_11_" gradientUnits="userSpaceOnUse" x1="1035.3071" y1="616.9556" x2="1409.4502" y2="866.3856">
		<stop offset="0" style="stop-color:#E72A79"/>
		<stop offset="1" style="stop-color:#642880"/>
	</linearGradient><path fill="url(#SVGID_11_)" d="M1291.889,552.134c-65.753-55.602-75.003,6.1-129.581,6.1c-48.922,0-61.432-49.56-110.855-19.789&#10;&#9;&#9;c8.525,5.864,14.13,15.684,14.13,26.792c0,17.736-14.288,32.188-31.958,32.477c0.635,2.226,0.998,4.565,0.998,6.992&#10;&#9;&#9;c0,14.063-11.443,25.505-25.508,25.505c-0.925,0-1.837-0.055-2.737-0.152c-0.155,5.311-2.378,10.11-5.912,13.604&#10;&#9;&#9;c6.671,5.332,10.964,13.52,10.964,22.704c0,8.999-4.112,17.053-10.553,22.389c10.257,6.264,17.118,17.563,17.118,30.435&#10;&#9;&#9;c0,3.274-0.452,6.442-1.283,9.455c13.701,0.015,24.843,11.164,24.843,24.869c0,13.714-11.156,24.87-24.87,24.87&#10;&#9;&#9;c-13.704,0-24.853-11.142-24.868-24.842c-3.013,0.831-6.182,1.283-9.456,1.283c-12.465,0-23.447-6.438-29.818-16.158&#10;&#9;&#9;c-0.133,25.595,4.69,48.727,15.541,65.933c38.526,61.087,101.231-68.302,194.225-68.302c92.995,0,155.698,129.389,194.224,68.302&#10;&#9;&#9;C1395.055,743.506,1357.646,607.739,1291.889,552.134z M1125.137,654.883h-19.017v19.014c0,7.76-6.293,14.054-14.056,14.054&#10;&#9;&#9;c-7.762,0-14.054-6.294-14.054-14.054v-19.014h-19.017c-7.763,0-14.056-6.296-14.056-14.059c0-7.763,6.292-14.055,14.056-14.055&#10;&#9;&#9;h19.017v-19.017c0-7.763,6.292-14.054,14.054-14.054c7.763,0,14.056,6.291,14.056,14.054v19.017h19.017&#10;&#9;&#9;c7.763,0,14.053,6.292,14.053,14.055C1139.189,648.587,1132.899,654.883,1125.137,654.883z M1199.483,654.892&#10;&#9;&#9;c-7.766,0-14.059-6.292-14.059-14.055c0-7.763,6.293-14.059,14.059-14.059c7.759,0,14.052,6.296,14.052,14.059&#10;&#9;&#9;C1213.535,648.6,1207.242,654.892,1199.483,654.892z M1232.552,687.951c-7.761,0-14.054-6.294-14.054-14.054&#10;&#9;&#9;c0-7.763,6.293-14.056,14.054-14.056c7.763,0,14.056,6.293,14.056,14.056C1246.607,681.657,1240.314,687.951,1232.552,687.951z&#10;&#9;&#9; M1232.552,621.809c-7.761,0-14.054-6.293-14.054-14.056c0-7.763,6.293-14.054,14.054-14.054c7.763,0,14.056,6.291,14.056,14.054&#10;&#9;&#9;C1246.607,615.516,1240.314,621.809,1232.552,621.809z M1265.622,654.892c-7.762,0-14.052-6.292-14.052-14.055&#10;&#9;&#9;c0-7.763,6.29-14.059,14.052-14.059c7.767,0,14.06,6.296,14.06,14.059C1279.682,648.6,1273.389,654.892,1265.622,654.892z" transform="matrix(1, 0, 0, 1, 0, 0)"/>
</svg>